<?xml version="1.0" standalone="no"?><svg xmlns="http://www.w3.org/2000/svg" viewBox="0 0 1440 320"><path fill="#094b65" fill-opacity="1" d="M0,224L40,218.7C80,213,160,203,240,165.3C320,128,400,64,480,58.7C560,53,640,107,720,149.3C800,192,880,224,960,240C1040,256,1120,256,1200,250.7C1280,245,1360,235,1400,229.3L1440,224L1440,320L1400,320C1360,320,1280,320,1200,320C1120,320,1040,320,960,320C880,320,800,320,720,320C640,320,560,320,480,320C400,320,320,320,240,320C160,320,80,320,40,320L0,320Z"></path></svg>